<?xml version="1.0" encoding="UTF-8" standalone="no"?>
<!-- Created with Inkscape (http://www.inkscape.org/) -->

<svg
   version="1.1"
   id="svg2"
   xml:space="preserve"
   width="581.69598"
   height="193.45999"
   viewBox="0 0 581.696 193.46"
   sodipodi:docname="logo_dark.svg"
   inkscape:version="1.1.2 (1:1.1+202202050950+0a00cf5339)"
   xmlns:inkscape="http://www.inkscape.org/namespaces/inkscape"
   xmlns:sodipodi="http://sodipodi.sourceforge.net/DTD/sodipodi-0.dtd"
   xmlns="http://www.w3.org/2000/svg"
   xmlns:svg="http://www.w3.org/2000/svg"><sodipodi:namedview
     id="namedview18"
     pagecolor="#ffffff"
     bordercolor="#666666"
     borderopacity="1.0"
     inkscape:pageshadow="2"
     inkscape:pageopacity="0.0"
     inkscape:pagecheckerboard="0"
     showgrid="false"
     inkscape:zoom="0.59175727"
     inkscape:cx="510.34439"
     inkscape:cy="-43.936934"
     inkscape:window-width="1872"
     inkscape:window-height="1051"
     inkscape:window-x="48"
     inkscape:window-y="0"
     inkscape:window-maximized="1"
     inkscape:current-layer="g10" /><defs
     id="defs6" /><g
     id="g8"
     transform="matrix(1.3333333,0,0,-1.3333333,-375.81866,763.39598)"><g
       id="g10"
       transform="scale(0.1)"><path
         d="m 4376.13,4583.47 c -12.98,0 -23.15,10.17 -23.15,23.14 v 633.51 c 0,13.07 11.04,24.11 24.1,24.11 h 7.73 c 9.23,0 16.73,-4.35 24.32,-14.1 l 457.61,-580.73 v 572.65 c 0,12.98 10.16,23.15 23.14,23.15 12.98,0 23.14,-10.17 23.14,-23.15 v -637.37 c 0,-11.36 -8.46,-20.25 -19.28,-20.25 h -3.86 c -8.06,0 -15.34,4.8 -24.33,16.05 l -466.29,591.34 v -585.21 c 0,-12.97 -10.16,-23.14 -23.13,-23.14"
         style="fill:#3b3b3b;fill-opacity:1;fill-rule:nonzero;stroke:none"
         id="path14" /><path
         d="m 5211.85,5047.97 c -96.91,0 -173.69,-80.8 -182.55,-192.13 l -0.09,-1.07 h 360.43 l -0.07,1.06 c -6.02,88.63 -56.18,192.14 -177.72,192.14 m 9.66,-472.24 c -137.07,0 -240.44,110.01 -240.44,255.88 v 1.95 c 0,143.47 102.23,255.87 232.71,255.87 130.36,0 224.98,-106.79 224.98,-253.94 0,-10.7 -10.98,-21.22 -22.17,-21.22 h -387.38 l 0.09,-1.07 c 8.13,-114.84 87.97,-195.03 194.14,-195.03 61.72,0 112.57,21.57 160.04,67.89 4.41,4.41 9.11,6.47 14.75,6.47 12.23,0 22.18,-9.52 22.18,-21.22 0,-3.78 -1.29,-9.57 -7.43,-15.71 -56,-55.98 -113.25,-79.87 -191.47,-79.87"
         style="fill:#3b3b3b;fill-opacity:1;fill-rule:nonzero;stroke:none"
         id="path16" /><path
         d="m 5730.97,4575.73 c -137.9,0 -250.09,114.36 -250.09,254.91 v 1.94 c 0,141.63 112.19,256.85 250.09,256.85 89.81,0 145.9,-41.66 184.73,-77.96 3.84,-3.84 6.44,-10.53 6.44,-16.65 0,-12.98 -10.16,-23.14 -23.14,-23.14 -6.21,0 -12.38,2.16 -15.71,5.5 -36.3,34.54 -82.9,69.82 -153.29,69.82 -112.11,0 -199.94,-93.33 -199.94,-212.48 v -1.94 c 0,-120.24 89.52,-214.42 203.81,-214.42 56.02,0 108.24,23.82 155.22,70.79 3.67,3.67 8.28,7.43 14.74,7.43 10.98,0 22.17,-11.19 22.17,-22.17 0,-5.03 -2.15,-10.44 -5.49,-13.79 -57.45,-58.57 -115.91,-84.69 -189.54,-84.69"
         style="fill:#3b3b3b;fill-opacity:1;fill-rule:nonzero;stroke:none"
         id="path18" /><path
         d="m 6152,4578.63 c -85.84,0 -137.09,50.18 -137.09,134.21 v 323.54 h -54.12 c -11.1,0 -21.21,10.11 -21.21,21.21 0,10.79 9.91,20.25 21.21,20.25 h 54.12 v 138.12 c 0,13.2 9.53,23.17 22.17,23.17 12.97,0 23.14,-10.18 23.14,-23.17 v -138.12 h 155.52 c 11.1,0 21.21,-10.11 21.21,-21.21 0,-10.79 -9.92,-20.25 -21.21,-20.25 h -155.52 v -318.72 c 0,-64.1 33.48,-96.6 99.5,-96.6 23.51,0 38.38,4.7 47.27,7.5 3.96,1.25 6.81,2.16 8.75,2.16 10.59,0 20.24,-9.66 20.24,-20.25 0,-8.77 -5.13,-15.47 -14.82,-19.36 -16.58,-5.8 -39.46,-12.48 -69.16,-12.48"
         style="fill:#3b3b3b;fill-opacity:1;fill-rule:nonzero;stroke:none"
         id="path20" /><path
         d="m 6320.98,4583.47 c -13.41,0 -23.14,9.74 -23.14,23.14 v 451.96 c 0,13.19 9.53,23.14 22.17,23.14 13.42,0 23.15,-9.73 23.15,-23.14 v -119.76 l 1.91,-0.41 c 44.94,101.11 133.65,147.17 197.06,147.17 13.74,0 24.1,-10.78 24.1,-25.08 0,-13.88 -9.93,-24.19 -24.17,-25.08 -96.17,-8.9 -198.9,-78.53 -198.9,-247.25 v -181.55 c 0,-13.19 -9.54,-23.14 -22.18,-23.14"
         style="fill:#3b3b3b;fill-opacity:1;fill-rule:nonzero;stroke:none"
         id="path22" /><path
         d="m 6651.72,4583.47 c -13.41,0 -23.14,9.74 -23.14,23.14 v 451.96 c 0,13.19 9.53,23.14 22.17,23.14 13.41,0 23.14,-9.73 23.14,-23.14 v -451.96 c 0,-13.83 -8.91,-23.14 -22.17,-23.14"
         style="fill:#3b3b3b;fill-opacity:1;fill-rule:nonzero;stroke:none"
         id="path24" /><path
         d="m 6986.33,4575.73 c -137.9,0 -250.09,114.36 -250.09,254.91 v 1.94 c 0,141.63 112.19,256.85 250.09,256.85 89.81,0 145.9,-41.66 184.73,-77.96 3.84,-3.84 6.44,-10.54 6.44,-16.65 0,-12.98 -10.16,-23.14 -23.14,-23.14 -6.21,0 -12.38,2.16 -15.71,5.5 -36.3,34.54 -82.9,69.82 -153.29,69.82 -112.11,0 -199.94,-93.33 -199.94,-212.48 v -1.94 c 0,-120.24 89.52,-214.42 203.81,-214.42 56.02,0 108.24,23.82 155.22,70.79 3.67,3.67 8.29,7.43 14.74,7.43 10.98,0 22.17,-11.19 22.17,-22.17 0,-5.03 -2.15,-10.44 -5.5,-13.79 -57.44,-58.57 -115.89,-84.69 -189.53,-84.69"
         style="fill:#3b3b3b;fill-opacity:1;fill-rule:nonzero;stroke:none"
         id="path26" /><path
         d="m 6650.75,5187.12 c -15.95,0 -27.97,12.03 -27.97,27.98 v 16.41 c 0,15.95 12.02,27.97 27.97,27.97 16.23,0 28.94,-12.28 28.94,-27.97 v -16.41 c 0,-15.69 -12.71,-27.98 -28.94,-27.98"
         style="fill:#ff9000;fill-opacity:1;fill-rule:nonzero;stroke:none"
         id="path28" /><path
         d="m 3221.11,4853.96 c -3.15,0 -6.32,0.74 -9.24,2.27 l -163.36,85.13 c -9.79,5.09 -13.6,17.18 -8.49,26.96 5.11,9.8 17.19,13.61 26.98,8.5 l 151.18,-78.78 153.95,135.87 c 3.79,3.34 8.68,5.21 13.78,5 l 156.21,-4.3 136.49,198.12 c 3.86,5.61 10.27,8.93 17.08,8.64 6.8,-0.21 13.02,-3.87 16.53,-9.67 l 177.16,-294.5 c 5.69,-9.49 2.64,-21.77 -6.83,-27.47 -9.45,-5.69 -21.74,-2.62 -27.45,6.84 l -161.16,267.91 -125.04,-181.52 c -3.84,-5.57 -10.08,-9.1 -17.02,-8.64 l -159.2,4.39 -158.33,-139.75 c -3.74,-3.3 -8.46,-5 -13.24,-5"
         style="fill:#3b3b3b;fill-opacity:1;fill-rule:nonzero;stroke:none"
         id="path30" /><path
         d="m 3464.38,5408.71 c -219.73,0 -398.5,-178.77 -398.5,-398.5 0,-219.73 178.77,-398.49 398.5,-398.49 219.74,0 398.5,178.76 398.5,398.49 0,219.73 -178.76,398.5 -398.5,398.5 m 0,-840.42 c -243.68,0 -441.92,198.24 -441.92,441.92 0,243.68 198.24,441.93 441.92,441.93 243.68,0 441.93,-198.25 441.93,-441.93 0,-243.68 -198.25,-441.92 -441.93,-441.92"
         style="fill:#ff9000;fill-opacity:1;fill-rule:nonzero;stroke:none"
         id="path32" /><path
         d="m 3467.79,4274.52 c -3.86,0 -7.71,0.98 -11.17,2.92 l -626.81,351.87 c -6.91,3.87 -11.17,11.04 -11.17,18.8 v 703.76 c 0,7.77 4.26,14.94 11.17,18.8 l 626.81,351.89 c 6.91,3.88 15.43,3.88 22.33,0 l 626.82,-351.89 c 6.91,-3.86 11.17,-11.03 11.17,-18.8 v -573.04 c 0,-12 -10,-21.71 -22.33,-21.71 -12.34,0 -24.37,6.84 -24.37,18.84 l -0.22,563.61 -600.4,330.43 -598.72,-331.92 v -668.93 l 596.17,-339.58 510.86,278.11 c 10.69,6.01 24.34,2.45 30.5,-7.95 6.17,-10.38 2.51,-23.66 -8.17,-29.64 l -521.31,-292.65 c -3.45,-1.94 -7.31,-2.92 -11.16,-2.92"
         style="fill:#ff9000;fill-opacity:1;fill-rule:nonzero;stroke:none"
         id="path34" /><path
         d="m 4110.45,4623.5 c -3.82,0.64 -7.57,2.07 -10.91,4.32 l -263.99,177.03 c -11.15,7.48 -13.67,21.19 -5.66,30.63 8.02,9.45 23.56,11.06 34.72,3.57 l 263.98,-177.03 c 11.15,-7.48 13.68,-21.2 5.66,-30.64 -5.62,-6.61 -14.91,-9.37 -23.8,-7.88"
         style="fill:#ff9000;fill-opacity:1;fill-rule:nonzero;stroke:none"
         id="path36" /></g></g></svg>
